<?xml version="1.0" encoding="utf-8"?>
<!-- Generator: Adobe Illustrator 24.2.0, SVG Export Plug-In . SVG Version: 6.00 Build 0)  -->
<svg version="1.1" id="Layer_1" xmlns="http://www.w3.org/2000/svg" xmlns:xlink="http://www.w3.org/1999/xlink" x="0px" y="0px"
	 viewBox="0 0 334 52" style="enable-background:new 0 0 334 52;" xml:space="preserve">
<style type="text/css">
	.st0{fill:#FFFFFF;}
</style>
<g>
	<path class="st0" d="M47,3h-0.8v2.3c0,0.8-0.5,1.4-1.2,1.4h-3.9c-0.6,0-1.2-0.6-1.2-1.4V3H9.3v2.3c0,0.8-0.5,1.4-1.2,1.4H4.2
		C3.6,6.7,3,6.1,3,5.3V3H2.3C1,3,0,4.3,0,5.8v39.4C0,46.7,1,48,2.3,48h0.8v-2.3c0-0.8,0.5-1.4,1.2-1.4h3.9c0.6,0,1.2,0.6,1.2,1.4V48
		h30.8v-2.3c0-0.8,0.5-1.4,1.2-1.4h3.9c0.6,0,1.2,0.6,1.2,1.4V48H47c1.3,0,2.3-1.3,2.3-2.8V5.8C49.3,4.3,48.3,3,47,3z M9.3,39.1
		c0,0.8-0.5,1.4-1.2,1.4H4.2c-0.6,0-1.2-0.6-1.2-1.4v-4.7C3,33.6,3.5,33,4.2,33h3.9c0.6,0,1.2,0.6,1.2,1.4V39.1z M9.3,27.8
		c0,0.8-0.5,1.4-1.2,1.4H4.2c-0.6,0-1.2-0.6-1.2-1.4v-4.7c0-0.8,0.5-1.4,1.2-1.4h3.9c0.6,0,1.2,0.6,1.2,1.4V27.8z M9.3,16.6
		c0,0.8-0.5,1.4-1.2,1.4H4.2C3.6,18,3,17.4,3,16.6v-4.7c0-0.8,0.5-1.4,1.2-1.4h3.9c0.6,0,1.2,0.6,1.2,1.4V16.6z M35.5,41
		c0,0.8-0.5,1.4-1.2,1.4H15c-0.6,0-1.2-0.6-1.2-1.4V29.7c0-0.8,0.5-1.4,1.2-1.4h19.3c0.6,0,1.2,0.6,1.2,1.4V41z M35.5,21.3
		c0,0.8-0.5,1.4-1.2,1.4H15c-0.6,0-1.2-0.6-1.2-1.4V10c0-0.8,0.5-1.4,1.2-1.4h19.3c0.6,0,1.2,0.6,1.2,1.4V21.3z M46.3,39.1
		c0,0.8-0.5,1.4-1.2,1.4h-3.9c-0.6,0-1.2-0.6-1.2-1.4v-4.7c0-0.8,0.5-1.4,1.2-1.4h3.9c0.6,0,1.2,0.6,1.2,1.4V39.1z M46.3,27.8
		c0,0.8-0.5,1.4-1.2,1.4h-3.9c-0.6,0-1.2-0.6-1.2-1.4v-4.7c0-0.8,0.5-1.4,1.2-1.4h3.9c0.6,0,1.2,0.6,1.2,1.4V27.8z M46.3,16.6
		c0,0.8-0.5,1.4-1.2,1.4h-3.9c-0.6,0-1.2-0.6-1.2-1.4v-4.7c0-0.8,0.5-1.4,1.2-1.4h3.9c0.6,0,1.2,0.6,1.2,1.4V16.6z"/>
</g>
<path class="st0" d="M243,34l0.2,1.2c0,0.5-0.3,1.1-0.8,1.7c-1.3,1.7-3.5,3.8-6.5,6c-3,2.3-5.1,3.4-6.5,3.4s-2.5-0.4-3.3-1.2
	s-1.2-1.8-1.2-2.8c0-1.3,1.3-4,4-8.4c4-6.4,9-13.9,15.2-22.5c-1.3,1.3-4.8,5-10.4,10.9c-12.4,13-19.7,20.4-21.8,22.1
	c-0.3,0.3-0.9,0.4-1.5,0.4c-0.7,0-1.3-0.3-2.1-0.8c-0.7-0.5-1.1-1.2-1.1-1.8V42c0.1-0.9,2-5,5.9-12.5c3.8-7.5,7.1-13.5,9.7-17.9
	c-3.8,4.2-7.7,9-11.7,14.2c-7.5,9.9-12.9,18.3-16.4,25.3c-0.3,0.7-0.7,1-1.1,1s-1.1-0.1-2-0.3c-1.8-0.5-2.7-1.3-2.7-2.6
	c0-0.7,1.5-3.3,4.5-7.8s6.5-9.4,10.4-14.8s8-10.5,12.3-15.4c5.8-6.8,9.6-10.3,11.3-10.3c0.3,0,0.5,0.1,0.8,0.2
	c0.2,0.1,0.4,0.2,0.5,0.2s0.1,0,0.2-0.1c0.3-0.3,0.8-0.5,1.6-0.5s1.6,0.2,2.3,0.5c0.8,0.3,1.1,0.7,1.1,1c0,0.2-1,2.2-3.1,5.8
	C224,20,219.4,28.3,217,32.8c2.2-2.7,5.4-6.3,9.6-10.8c4.2-4.5,8.6-8.9,13.1-13.4c6-5.8,9.5-8.7,10.7-8.7c0.5,0,1.1,0.1,1.8,0.3
	c1.3,0.4,2.5,0.5,3.6,0.5c0.3,0.1,0.6,0.2,0.8,0.4c0.2,0.2,0.4,0.4,0.4,0.6s-0.1,0.4-0.2,0.5c-6.6,8.8-12.2,16.5-16.7,23.3
	c-4.5,6.7-7.3,11.3-8.4,13.6c2.1-0.4,5.3-3,9.6-7.7c0.2-0.2,0.3-0.4,0.4-0.5c0.1-0.1,0.2-0.2,0.2-0.2c0.3-0.4,0.6-0.2,0.8,0.8
	c0.1,0.5,0.1,0.9,0.2,1.1c0,0.2,0.1,0.4,0.1,0.7C243,33.7,243,33.9,243,34z"/>
<path class="st0" d="M267.8,22c0.6,0,1.2,0.3,1.9,0.8c0.7,0.5,1,1.4,1,2.5s-0.4,2.6-1.2,4.4c-0.8,1.8-1.9,3.6-3.3,5.5
	c-1.4,1.9-2.9,3.6-4.6,5.2c-1.6,1.6-3.4,3-5.4,4c-1.9,1-3.7,1.6-5.2,1.6c-1.6,0-2.8-0.5-3.8-1.5c-0.9-1-1.4-2.4-1.4-4.1
	c0-1.8,0.4-3.7,1.3-5.9c0.9-2.1,2-4,3.4-5.6s2.8-3.1,4.4-4.4c3.3-2.7,6.2-4,8.7-4c1.1,0,2,0.3,2.5,0.8c0.2,0.2,0.3,0.3,0.3,0.5V22
	C266.8,22,267.2,22,267.8,22z M264.7,26h-0.2c-0.7,0-1.1-0.5-1.1-1.6c-1.5,0.5-3,1.3-4.7,2.6c-1.6,1.2-3.1,2.7-4.4,4.3
	c-2.6,3.3-3.9,6.2-4,8.5c0,1.1,0.4,1.7,1.3,1.7c0.8,0,2.1-0.5,3.7-1.6c1.6-1.1,3.3-2.7,4.9-4.7s2.8-3.8,3.6-5.3
	c0.8-1.5,1.2-2.5,1.2-3.1C265.2,26.3,265,26,264.7,26z"/>
<path class="st0" d="M298,21.7c0,1.4-0.8,3.5-2.4,6.2s-3.6,5.4-6,8.2s-5,5.2-7.8,7.2c-2.7,2-4.9,3-6.4,3c-0.8,0-1.6-0.3-2.3-0.9
	c-0.7-0.6-1-1.6-1-2.9c0-1.3,0.6-3.4,1.9-6.3c1.3-2.9,2.5-5.3,3.7-7.3c-1.1,0.8-1.7,1.2-2,1.2c-0.2,0-0.5-0.3-0.9-0.8
	c-0.3-0.5-0.5-0.9-0.5-1.2c0-0.3,0.1-0.5,0.2-0.7c4-4.5,6.8-6.7,8.5-6.7c0.7,0,1.3,0.2,1.7,0.6c0.5,0.4,0.7,0.9,0.7,1.5
	s-0.7,2.2-2.1,4.9s-2.8,5.4-4.2,8.2c-1.4,2.7-2.1,4.5-2.1,5.2c0,0.1,0.1,0.2,0.2,0.2c0.5,0,2-1,4.3-3.1s4.2-4.1,5.7-5.9
	c1.4-1.8,2.7-3.6,3.8-5.5c1.1-1.8,1.6-3,1.6-3.6s-0.1-1-0.4-1.4c-0.2-0.4-0.3-0.8-0.3-1.2c0-0.4,0.3-0.9,0.9-1.5
	c0.6-0.5,1.4-0.8,2.3-0.8C297,18.3,298,19.4,298,21.7z"/>
<path class="st0" d="M317.7,11.7c0,1.2-0.5,2.3-1.6,3.5s-2.2,1.7-3.4,1.7c-1.2,0-1.7-0.6-1.7-1.8s0.5-2.4,1.5-3.5s2.2-1.7,3.4-1.7
	c0.6,0,1,0.2,1.3,0.5C317.5,10.7,317.7,11.2,317.7,11.7z M312.7,38.4c0,0.6-0.1,1-0.2,1.3c-1,2-2.6,3.7-4.8,4.9
	c-2.2,1.2-4.1,1.9-5.7,1.9s-3-0.5-4.2-1.6s-1.7-2.2-1.7-3.3s0.6-2.7,1.7-4.9c1.1-2.1,2.2-4.1,3.4-5.9c1.1-1.8,1.7-2.8,1.7-2.9
	c0-0.2-0.2-0.5-0.6-0.9s-0.6-0.8-0.6-1s0.4-0.8,1.3-1.7c0.9-0.9,1.9-1.8,3.1-2.7c1.2-0.9,2.1-1.3,2.8-1.3c0.7,0,1.2,0.3,1.7,0.9
	s0.8,1.1,0.8,1.6s-2.4,4.9-7.3,13.2c-0.1,0.1-0.2,0.4-0.5,0.8c-0.3,0.4-0.5,0.8-0.6,1c-0.1,0.3-0.3,0.6-0.5,1
	c-0.4,0.8-0.6,1.5-0.6,2c0,0.7,0.5,1,1.4,1s1.9-0.3,2.9-0.9c1-0.7,1.9-1.4,2.6-2.1c1.9-2.1,3-3.1,3.3-3.1
	C312.5,35.6,312.7,36.5,312.7,38.4z"/>
<path class="st0" d="M334,22.4c0,1.3-0.5,2.5-1.6,3.5s-2.3,1.5-3.7,1.5c-0.4,0-0.7-0.1-0.9-0.3c-0.1-0.2-0.2-0.5-0.2-0.9
	c0-0.3,0-0.7,0.1-1c-0.7,0.2-1.5,0.6-2.4,1.1s-2,1.3-3.3,2.3s-2,1.7-2,2.2c0,0.2,0.2,0.2,0.7,0.2s1.2-0.2,2.2-0.5s1.7-0.5,2.1-0.5
	s0.7,0,0.8,0.1c0.3,0.1,0.6,0.5,0.9,0.9c0.3,0.5,0.5,0.8,0.5,1.1c0,0.3-0.3,0.6-0.8,1.1c-0.5,0.4-1.1,0.8-1.8,1
	c-0.7,0.2-1.1,0.4-1.3,0.5c-4.3,2.4-6.4,4-6.4,4.9c0,1.6,1.4,2.4,4.1,2.4c1.7,0,3.5-0.5,5.2-1.6c1.5-0.9,2.8-1.9,4-2.8
	c1.2-1,2-1.6,2.3-1.8s0.6-0.3,0.7-0.3c0.5,0,0.8,0.6,0.8,1.8s-0.1,2-0.2,2.3c-0.1,0.4-0.5,0.8-1.2,1.4c-4.4,3.5-8.5,5.3-12.4,5.3
	c-2.1,0-3.7-0.3-5-0.9c-2.3-1-3.4-2.6-3.4-4.8c0-2.8,1.9-4.9,5.8-6.4c-0.8-0.3-1.3-0.8-1.5-1.3s-0.3-1.4-0.3-2.6s0.5-2.5,1.6-3.8
	s2.5-2.4,4.1-3.3c3.6-1.9,6.8-2.9,9.6-2.9c0.7,0,1.4,0.2,2,0.5C333.7,21.4,334,21.8,334,22.4z"/>
<path class="st0" d="M79.3,42.5l-9.7-15.2h-4.4v15.2H62V7h11.3c1.2,0,2.4,0.2,3.4,0.7c1.1,0.4,2,1.1,2.8,1.9
	c0.8,0.8,1.4,1.7,1.9,2.8s0.7,2.2,0.7,3.4v2.9c0,1.2-0.2,2.3-0.7,3.4c-0.4,1.1-1.1,2-1.9,2.8s-1.7,1.4-2.8,1.9
	c-1.1,0.4-2.2,0.7-3.4,0.7l9.7,15H79.3z M78.9,15.7c0-0.8-0.1-1.5-0.4-2.2s-0.7-1.3-1.2-1.8s-1.1-0.9-1.8-1.2
	C74.7,10.2,74,10,73.2,10h-8v14.3h8c0.8,0,1.5-0.1,2.2-0.4s1.3-0.7,1.8-1.2s0.9-1.1,1.2-1.8c0.3-0.7,0.4-1.4,0.4-2.2v-3H78.9z"/>
<path class="st0" d="M107.3,35.5c0,1-0.2,2-0.6,2.9s-0.9,1.7-1.6,2.4s-1.5,1.2-2.4,1.6c-0.9,0.4-1.9,0.6-2.9,0.6h-2
	c-1,0-2-0.2-2.9-0.6c-0.9-0.4-1.7-0.9-2.4-1.6c-0.7-0.7-1.2-1.5-1.6-2.4s-0.6-1.9-0.6-2.9V24.1c0-1,0.2-2,0.6-2.9s0.9-1.7,1.6-2.4
	c0.7-0.7,1.5-1.2,2.4-1.6s1.9-0.6,2.9-0.6h2c1,0,2,0.2,2.9,0.6s1.7,0.9,2.4,1.6c0.7,0.7,1.2,1.5,1.6,2.4s0.6,1.9,0.6,2.9v6h-14v5.6
	c0,0.6,0.1,1.2,0.3,1.7c0.2,0.5,0.5,1,0.9,1.4s0.9,0.7,1.4,0.9S97,40,97.6,40h2c0.6,0,1.2-0.1,1.7-0.3s1-0.5,1.4-0.9
	s0.7-0.9,0.9-1.4c0.2-0.5,0.3-1.1,0.3-1.7V34l3.1,0.5v1H107.3z M104.2,23.9c0-0.6-0.1-1.2-0.3-1.7c-0.2-0.5-0.5-1-0.9-1.4
	s-0.9-0.7-1.4-0.9c-0.5-0.2-1.1-0.3-1.7-0.3h-2c-0.6,0-1.2,0.1-1.7,0.3c-0.5,0.2-1,0.5-1.4,0.9s-0.7,0.9-0.9,1.4
	c-0.2,0.5-0.3,1.1-0.3,1.7v3.8h10.9v-3.8H104.2z"/>
<path class="st0" d="M131.5,42.5l-1.7-2.5c-0.7,0.9-1.6,1.6-2.6,2.2c-1,0.5-2.2,0.8-3.4,0.8H123c-1,0-2-0.2-2.9-0.6
	c-0.9-0.4-1.7-0.9-2.4-1.6c-0.7-0.7-1.2-1.5-1.6-2.4s-0.6-1.9-0.6-2.9v-0.2c0-1,0.2-2,0.6-2.9c0.4-0.9,0.9-1.7,1.6-2.4
	c0.7-0.7,1.5-1.2,2.4-1.6s1.9-0.6,2.9-0.6h6.5v-3.9c0-0.6-0.1-1.2-0.3-1.7s-0.5-1-0.9-1.4c-0.4-0.4-0.9-0.7-1.4-0.9
	c-0.5-0.2-1.1-0.3-1.7-0.3h-1.8c-0.6,0-1.2,0.1-1.7,0.3c-0.5,0.2-1,0.5-1.4,0.9s-0.7,0.9-0.9,1.4c-0.2,0.5-0.3,1.1-0.3,1.7v0.9
	l-3.1-0.5v-0.2c0-1,0.2-2,0.6-2.9s0.9-1.7,1.6-2.4c0.7-0.7,1.5-1.2,2.4-1.6s1.9-0.6,2.9-0.6h1.8c1,0,2,0.2,2.9,0.6s1.7,0.9,2.4,1.6
	s1.2,1.5,1.6,2.4c0.4,0.9,0.6,1.9,0.6,2.9v18.4C132.8,42.5,131.5,42.5,131.5,42.5z M129.4,30.2H123c-0.6,0-1.2,0.1-1.7,0.3
	c-0.5,0.2-1,0.6-1.4,1s-0.7,0.9-0.9,1.4c-0.2,0.5-0.3,1.1-0.3,1.7v1.1c0,0.6,0.1,1.2,0.3,1.7c0.2,0.5,0.5,1,0.9,1.4s0.9,0.7,1.4,0.9
	s1.1,0.3,1.7,0.3h2c0.6,0,1.2-0.1,1.7-0.3s1-0.5,1.4-0.9s0.7-0.9,0.9-1.4s0.3-1.1,0.3-1.7v-5.5H129.4z"/>
<path class="st0" d="M157.7,35.5c0,1-0.2,2-0.6,2.9c-0.4,0.9-0.9,1.7-1.6,2.4c-0.7,0.7-1.5,1.2-2.4,1.6c-0.9,0.4-1.9,0.6-2.9,0.6h-2
	c-1,0-2-0.2-2.9-0.6c-0.9-0.4-1.7-0.9-2.4-1.6c-0.7-0.7-1.2-1.5-1.6-2.4c-0.4-0.9-0.6-1.9-0.6-2.9V24.1c0-1,0.2-2,0.6-2.9
	c0.4-0.9,0.9-1.7,1.6-2.4c0.7-0.7,1.5-1.2,2.4-1.6s1.9-0.6,2.9-0.6h2c1,0,2,0.2,2.9,0.6s1.7,0.9,2.4,1.6s1.2,1.5,1.6,2.4
	c0.4,0.9,0.6,1.9,0.6,2.9v1l-3.1,0.5v-1.7c0-0.6-0.1-1.2-0.3-1.7s-0.5-1-0.9-1.4s-0.9-0.7-1.4-0.9c-0.5-0.2-1.1-0.3-1.7-0.3h-2
	c-0.6,0-1.2,0.1-1.7,0.3c-0.5,0.2-1,0.5-1.4,0.9s-0.7,0.9-0.9,1.4s-0.3,1.1-0.3,1.7v11.8c0,0.6,0.1,1.2,0.3,1.7s0.5,1,0.9,1.4
	s0.9,0.7,1.4,0.9s1.1,0.3,1.7,0.3h2c0.6,0,1.2-0.1,1.7-0.3s1-0.5,1.4-0.9s0.7-0.9,0.9-1.4s0.3-1.1,0.3-1.7V34l3.1,0.5V35.5z"/>
<path class="st0" d="M175.2,42.5c-0.9,0-1.8-0.2-2.6-0.5s-1.5-0.8-2.1-1.4c-0.6-0.6-1.1-1.3-1.4-2.1c-0.3-0.8-0.5-1.7-0.5-2.6V20
	H164v-2.9h4.6V11l3.1-0.5v6.6h6.5V20h-6.5v16c0,0.5,0.1,1,0.3,1.4s0.5,0.8,0.8,1.1s0.7,0.6,1.2,0.8c0.4,0.2,0.9,0.3,1.4,0.3h2.8v2.9
	H175.2z"/>
</svg>
